<svg width="34" height="36" viewBox="0 0 34 36" fill="none" xmlns="http://www.w3.org/2000/svg">
<path fill-rule="evenodd" clip-rule="evenodd" d="M14.022 1.19905C14.3203 0.841219 14.6902 0.549881 15.108 0.343826C15.5258 0.13777 15.9821 0.0215732 16.4476 0.00272866C16.9131 -0.0161159 17.3773 0.0628107 17.8104 0.234418C18.2435 0.406025 18.6358 0.666502 18.962 0.999048L19.142 1.19905L25.6953 9.06238H30.6703C31.0201 9.06164 31.3661 9.13479 31.6856 9.27704C32.0051 9.41929 32.291 9.62744 32.5245 9.88784C32.758 10.1482 32.9339 10.455 33.0406 10.7881C33.1473 11.1212 33.1824 11.4731 33.1437 11.8207L32.9903 13.0974L32.8237 14.3307L32.687 15.254L32.5287 16.2457L32.3487 17.2874L32.1453 18.3674L31.9187 19.469C31.7987 20.0246 31.6698 20.5796 31.532 21.134C31.1631 22.5974 30.6999 24.0354 30.1453 25.439L29.777 26.339L29.4203 27.1524L29.0837 27.8757L28.927 28.199L28.512 29.0157C27.9787 30.0324 26.972 30.6324 25.907 30.719L25.6403 30.729H7.50699C6.92432 30.7334 6.35141 30.5794 5.84945 30.2835C5.34749 29.9876 4.93533 29.5609 4.65698 29.049L4.27032 28.299L3.97032 27.6824L3.81199 27.3407L3.47865 26.5924C2.71748 24.8249 2.09993 22.999 1.63199 21.1324C1.5415 20.77 1.45483 20.4066 1.37199 20.0424L1.13532 18.9624L0.923652 17.9057L0.736985 16.884L0.570318 15.9057L0.425319 14.9824L0.301986 14.1274L0.151985 12.989L0.0419853 12.0624L0.013652 11.8074C-0.0208239 11.4799 0.0101564 11.1489 0.104791 10.8336C0.199425 10.5182 0.355824 10.2248 0.564888 9.97048C0.773953 9.71613 1.03151 9.50589 1.32258 9.35199C1.61364 9.1981 1.9324 9.10361 2.26032 9.07405L2.48699 9.06238H7.46865L14.022 1.19905ZM13.1837 16.9324C13.0709 16.5391 12.8175 16.2011 12.4716 15.9826C12.1257 15.7642 11.7116 15.6805 11.3081 15.7476C10.9045 15.8148 10.5398 16.028 10.2833 16.3466C10.0267 16.6653 9.89637 17.0672 9.91699 17.4757L9.93865 17.669L10.772 22.669L10.8137 22.859C10.9264 23.2523 11.1798 23.5903 11.5257 23.8088C11.8716 24.0273 12.2857 24.1109 12.6892 24.0438C13.0928 23.9767 13.4575 23.7635 13.714 23.4448C13.9706 23.1262 14.1009 22.7243 14.0803 22.3157L14.0587 22.1224L13.2253 17.1224L13.1837 16.9324ZM21.8553 15.7524C21.4525 15.6852 21.039 15.7682 20.6934 15.9858C20.3477 16.2033 20.094 16.5401 19.9803 16.9324L19.9387 17.1224L19.1053 22.1224C19.0358 22.5417 19.129 22.9718 19.3661 23.3246C19.6031 23.6774 19.966 23.9264 20.3805 24.0205C20.7951 24.1146 21.2299 24.0467 21.596 23.8308C21.9622 23.615 22.232 23.2673 22.3503 22.859L22.392 22.669L23.2253 17.669C23.2976 17.2332 23.1939 16.7866 22.937 16.4272C22.6801 16.0678 22.2911 15.8251 21.8553 15.7524ZM16.582 3.33238L11.807 9.06238H21.357L16.582 3.33238Z" fill="#323232"/>
</svg>
