<svg width="40" height="41" viewBox="0 0 40 41" fill="none" xmlns="http://www.w3.org/2000/svg">
<path d="M20 0.45459C17.3736 0.45459 14.7728 0.971905 12.3463 1.977C9.91982 2.98209 7.71504 4.45528 5.85786 6.31245C2.10714 10.0632 0 15.1503 0 20.4546C0 25.7589 2.10714 30.846 5.85786 34.5967C7.71504 36.4539 9.91982 37.9271 12.3463 38.9322C14.7728 39.9373 17.3736 40.4546 20 40.4546C25.3043 40.4546 30.3914 38.3475 34.1421 34.5967C37.8929 30.846 40 25.7589 40 20.4546C40 17.8282 39.4827 15.2274 38.4776 12.8009C37.4725 10.3744 35.9993 8.16963 34.1421 6.31245C32.285 4.45528 30.0802 2.98209 27.6537 1.977C25.2272 0.971905 22.6264 0.45459 20 0.45459ZM28.4 28.8546L18 22.4546V10.4546H21V20.8546L30 26.2546L28.4 28.8546Z" fill="#B13437"/>
</svg>
