<svg width="28" height="50" viewBox="0 0 28 50" fill="none" xmlns="http://www.w3.org/2000/svg">
<path fill-rule="evenodd" clip-rule="evenodd" d="M17.63 3.90041C17.9226 3.35945 18.0343 2.69682 17.9412 2.05425C17.848 1.41168 17.5574 0.840174 17.1315 0.461965C16.7056 0.083756 16.1783 -0.0711318 15.6622 0.030427C15.1461 0.131986 14.6823 0.481929 14.37 1.00541L12.37 4.52791C12.2937 4.66121 12.228 4.80356 12.174 4.95291H5C4.20435 4.95291 3.44129 5.348 2.87868 6.05126C2.31607 6.75452 2 7.70835 2 8.70291V12.4529L2.006 12.6629C1.4194 12.9204 0.911291 13.3994 0.551927 14.0335C0.192563 14.6677 -0.000301921 15.4258 3.54774e-07 16.2029V19.9529C-6.25408e-06 20.6138 0.209334 21.2478 0.582247 21.7163C0.95516 22.1848 1.4613 22.4496 1.99 22.4529L3.83 45.4529C3.92916 46.6862 4.39128 47.8295 5.12669 48.661C5.8621 49.4925 6.81838 49.9529 7.81 49.9529H20.19C21.1816 49.9529 22.1379 49.4925 22.8733 48.661C23.6087 47.8295 24.0708 46.6862 24.17 45.4529L26.01 22.4529C26.5387 22.4496 27.0448 22.1848 27.4178 21.7163C27.7907 21.2478 28 20.6138 28 19.9529V16.2029C28.0003 15.4258 27.8074 14.6677 27.4481 14.0335C27.0887 13.3994 26.5806 12.9204 25.994 12.6629L26 12.4529V8.70291C26 7.70835 25.6839 6.75452 25.1213 6.05126C24.5587 5.348 23.7956 4.95291 23 4.95291H17.034L17.63 3.90041ZM6 12.4529V9.95291H22V12.4529H6Z" fill="#B13437"/>
</svg>
