<svg width="40" height="33" viewBox="0 0 40 33" fill="none" xmlns="http://www.w3.org/2000/svg">
<path d="M34 0.45459H6C4.4087 0.45459 2.88258 1.08673 1.75736 2.21195C0.632141 3.33717 0 4.86329 0 6.45459V26.4546C0 28.0459 0.632141 29.572 1.75736 30.6972C2.88258 31.8224 4.4087 32.4546 6 32.4546H34C35.5913 32.4546 37.1174 31.8224 38.2426 30.6972C39.3679 29.572 40 28.0459 40 26.4546V6.45459C40 4.86329 39.3679 3.33717 38.2426 2.21195C37.1174 1.08673 35.5913 0.45459 34 0.45459ZM34 4.45459L21 13.3946C20.696 13.5701 20.3511 13.6625 20 13.6625C19.6489 13.6625 19.304 13.5701 19 13.3946L6 4.45459H34Z" fill="#B13437"/>
</svg>
