<svg width="50" height="49" viewBox="0 0 50 49" fill="none" xmlns="http://www.w3.org/2000/svg">
<path d="M48.0769 19.2161H46.0649C45.5817 13.9633 43.1535 9.08068 39.2565 5.52572C35.3595 1.97075 30.2749 0 25 0C19.7251 0 14.6405 1.97075 10.7435 5.52572C6.84654 9.08068 4.4183 13.9633 3.9351 19.2161H1.92308C1.41305 19.2161 0.923903 19.4187 0.563256 19.7793C0.202609 20.14 0 20.6291 0 21.1391C0.00844953 25.7125 1.26705 30.1965 3.63969 34.1063C6.01233 38.0161 9.40871 41.2028 13.4615 43.3218V44.2161C13.4615 45.2361 13.8668 46.2144 14.5881 46.9357C15.3093 47.657 16.2876 48.0622 17.3077 48.0622H32.6923C33.7124 48.0622 34.6907 47.657 35.4119 46.9357C36.1332 46.2144 36.5385 45.2361 36.5385 44.2161V43.3218C40.5913 41.2028 43.9877 38.0161 46.3603 34.1063C48.7329 30.1965 49.9916 25.7125 50 21.1391C50 20.6291 49.7974 20.14 49.4367 19.7793C49.0761 19.4187 48.587 19.2161 48.0769 19.2161ZM35.9327 7.73288C36.3734 8.09346 36.7957 8.47407 37.1995 8.87471C32.0802 10.6756 27.8498 14.3766 25.3846 19.2112H18.2933C19.4952 15.8421 21.708 12.9262 24.6294 10.8618C27.5508 8.79751 31.0383 7.68545 34.6154 7.67759C35.0553 7.67759 35.4952 7.69923 35.9327 7.73288ZM29.8365 19.2161C32.1681 15.7182 35.6954 13.1908 39.7572 12.1079C41.0853 14.2681 41.9185 16.6956 42.1971 19.2161H29.8365ZM25 3.83144C26.5432 3.83284 28.0792 4.04061 29.5673 4.44923C25.9433 5.3482 22.6204 7.18658 19.9334 9.77909C17.2463 12.3716 15.2902 15.6266 14.262 19.2161H7.80288C8.27991 14.9874 10.2964 11.0821 13.468 8.24476C16.6396 5.40744 20.7445 3.8365 25 3.83144Z" fill="#B13437"/>
</svg>
