<svg width="40" height="51" viewBox="0 0 40 51" fill="none" xmlns="http://www.w3.org/2000/svg">
<path d="M20 0C14.6976 0.0062554 9.61415 2.1154 5.86478 5.86477C2.11541 9.61414 0.00626795 14.6976 1.25531e-05 20C-0.0048626 24.3329 1.41039 28.548 4.0291 32C4.0291 32 4.57456 32.7182 4.66365 32.8218L20 50.9091L35.3436 32.8127C35.4236 32.7164 35.9709 32 35.9709 32L35.9727 31.9945C38.5897 28.5438 40.0042 24.3308 40 20C39.9937 14.6976 37.8846 9.61414 34.1352 5.86477C30.3859 2.1154 25.3024 0.0062554 20 0ZM20 27.2727C18.5616 27.2727 17.1555 26.8462 15.9595 26.047C14.7635 25.2479 13.8313 24.1121 13.2809 22.7831C12.7304 21.4542 12.5864 19.9919 12.867 18.5812C13.1476 17.1704 13.8403 15.8745 14.8574 14.8574C15.8745 13.8403 17.1704 13.1476 18.5812 12.867C19.9919 12.5864 21.4542 12.7304 22.7832 13.2809C24.1121 13.8313 25.2479 14.7635 26.0471 15.9595C26.8462 17.1555 27.2727 18.5616 27.2727 20C27.2703 21.9281 26.5033 23.7765 25.1399 25.1399C23.7766 26.5033 21.9281 27.2703 20 27.2727Z" fill="#B13437"/>
</svg>
