<svg width="36" height="52" viewBox="0 0 36 52" fill="none" xmlns="http://www.w3.org/2000/svg">
<path d="M33.4286 23.3182V10.3636H25.7143V5.18182H18V0H7.71429V7.77273H2.57143V23.3182H0L5.14286 51.8182H30.8571L36 23.3182H33.4286ZM27.9257 23.3182C27.5143 24.8986 26.7429 26.3236 25.7143 27.5155V17.1518L30.8571 19.7427V23.3182H27.9257ZM30.8571 12.9545V16.8409L25.7143 14.25V12.9545H30.8571ZM18 7.77273H23.1429V16.8409L18 19.4318V7.77273ZM18 22.3336L23.1429 19.7427V29.6659C21.6257 30.5727 19.8771 31.0909 18 31.0909V22.3336ZM15.4286 30.7282C13.3971 30.1841 11.5714 29.07 10.2857 27.5155V19.7427L15.4286 17.1518V30.7282ZM10.2857 2.59091H15.4286V14.25L12.8571 15.5455V7.77273H10.2857V2.59091ZM5.14286 10.3636H10.2857V16.8409L7.71429 18.1364V23.3182H5.14286V10.3636Z" fill="#B13437"/>
</svg>
